<svg id="visual" viewBox="0 0 960 540" width="960" height="540" xmlns="http://www.w3.org/2000/svg" xmlns:xlink="http://www.w3.org/1999/xlink" version="1.1"><path d="M623 540L627.8 531.8C632.7 523.7 642.3 507.3 648.7 491C655 474.7 658 458.3 662.8 442C667.7 425.7 674.3 409.3 664.8 393C655.3 376.7 629.7 360.3 624.8 344C620 327.7 636 311.3 656.8 294.8C677.7 278.3 703.3 261.7 709.7 245.2C716 228.7 703 212.3 677.3 196C651.7 179.7 613.3 163.3 632.5 147C651.7 130.7 728.3 114.3 733.2 98C738 81.7 671 65.3 634.3 49C597.7 32.7 591.3 16.3 588.2 8.2L585 0L960 0L960 8.2C960 16.3 960 32.7 960 49C960 65.3 960 81.7 960 98C960 114.3 960 130.7 960 147C960 163.3 960 179.7 960 196C960 212.3 960 228.7 960 245.2C960 261.7 960 278.3 960 294.8C960 311.3 960 327.7 960 344C960 360.3 960 376.7 960 393C960 409.3 960 425.7 960 442C960 458.3 960 474.7 960 491C960 507.3 960 523.7 960 531.8L960 540Z" fill="#36b796"></path><path d="M402 540L395.7 531.8C389.3 523.7 376.7 507.3 379.8 491C383 474.7 402 458.3 389.2 442C376.3 425.7 331.7 409.3 341.3 393C351 376.7 415 360.3 442.2 344C469.3 327.7 459.7 311.3 456.5 294.8C453.3 278.3 456.7 261.7 459.8 245.2C463 228.7 466 212.3 464.3 196C462.7 179.7 456.3 163.3 459.7 147C463 130.7 476 114.3 471.2 98C466.3 81.7 443.7 65.3 430.8 49C418 32.7 415 16.3 413.5 8.2L412 0L586 0L589.2 8.2C592.3 16.3 598.7 32.7 635.3 49C672 65.3 739 81.7 734.2 98C729.3 114.3 652.7 130.7 633.5 147C614.3 163.3 652.7 179.7 678.3 196C704 212.3 717 228.7 710.7 245.2C704.3 261.7 678.7 278.3 657.8 294.8C637 311.3 621 327.7 625.8 344C630.7 360.3 656.3 376.7 665.8 393C675.3 409.3 668.7 425.7 663.8 442C659 458.3 656 474.7 649.7 491C643.3 507.3 633.7 523.7 628.8 531.8L624 540Z" fill="#21a584"></path><path d="M345 540L324.2 531.8C303.3 523.7 261.7 507.3 253.7 491C245.7 474.7 271.3 458.3 263.3 442C255.3 425.7 213.7 409.3 218.3 393C223 376.7 274 360.3 306 344C338 327.7 351 311.3 351 294.8C351 278.3 338 261.7 330 245.2C322 228.7 319 212.3 330.3 196C341.7 179.7 367.3 163.3 372.2 147C377 130.7 361 114.3 346.5 98C332 81.7 319 65.3 303 49C287 32.7 268 16.3 258.5 8.2L249 0L413 0L414.5 8.2C416 16.3 419 32.7 431.8 49C444.7 65.3 467.3 81.7 472.2 98C477 114.3 464 130.7 460.7 147C457.3 163.3 463.7 179.7 465.3 196C467 212.3 464 228.7 460.8 245.2C457.7 261.7 454.3 278.3 457.5 294.8C460.7 311.3 470.3 327.7 443.2 344C416 360.3 352 376.7 342.3 393C332.7 409.3 377.3 425.7 390.2 442C403 458.3 384 474.7 380.8 491C377.7 507.3 390.3 523.7 396.7 531.8L403 540Z" fill="#009473"></path><path d="M124 540L117.5 531.8C111 523.7 98 507.3 96.3 491C94.7 474.7 104.3 458.3 101.2 442C98 425.7 82 409.3 80.5 393C79 376.7 92 360.3 101.7 344C111.3 327.7 117.7 311.3 128.8 294.8C140 278.3 156 261.7 162.3 245.2C168.7 228.7 165.3 212.3 155.7 196C146 179.7 130 163.3 117.2 147C104.3 130.7 94.7 114.3 101.2 98C107.7 81.7 130.3 65.3 136.8 49C143.3 32.7 133.7 16.3 128.8 8.2L124 0L250 0L259.5 8.2C269 16.3 288 32.7 304 49C320 65.3 333 81.7 347.5 98C362 114.3 378 130.7 373.2 147C368.3 163.3 342.7 179.7 331.3 196C320 212.3 323 228.7 331 245.2C339 261.7 352 278.3 352 294.8C352 311.3 339 327.7 307 344C275 360.3 224 376.7 219.3 393C214.7 409.3 256.3 425.7 264.3 442C272.3 458.3 246.7 474.7 254.7 491C262.7 507.3 304.3 523.7 325.2 531.8L346 540Z" fill="#008064"></path><path d="M0 540L0 531.8C0 523.7 0 507.3 0 491C0 474.7 0 458.3 0 442C0 425.7 0 409.3 0 393C0 376.7 0 360.3 0 344C0 327.7 0 311.3 0 294.8C0 278.3 0 261.7 0 245.2C0 228.7 0 212.3 0 196C0 179.7 0 163.3 0 147C0 130.7 0 114.3 0 98C0 81.7 0 65.3 0 49C0 32.7 0 16.3 0 8.2L0 0L125 0L129.8 8.2C134.7 16.3 144.3 32.7 137.8 49C131.3 65.3 108.7 81.7 102.2 98C95.7 114.3 105.3 130.7 118.2 147C131 163.3 147 179.7 156.7 196C166.3 212.3 169.7 228.7 163.3 245.2C157 261.7 141 278.3 129.8 294.8C118.7 311.3 112.3 327.7 102.7 344C93 360.3 80 376.7 81.5 393C83 409.3 99 425.7 102.2 442C105.3 458.3 95.7 474.7 97.3 491C99 507.3 112 523.7 118.5 531.8L125 540Z" fill="#006c55"></path></svg>